{
  "accessors": [
    {
      "name": "Cylinder_Gris_0_positions",
      "componentType": 5126,
      "count": 480,
      "min": [
        -1.9643280506134033,
        -0.4234350025653839,
        -1.9643280506134033
      ],
      "max": [
        1.9643280506134033,
        0.4234350025653839,
        1.9643280506134033
      ],
      "type": "VEC3",
      "bufferView": 0,
      "byteOffset": 0
    },
    {
      "name": "Cylinder_Gris_0_normals",
      "componentType": 5126,
      "count": 480,
      "min": [
        -1,
        -0.9955096244812012,
        -1
      ],
      "max": [
        1,
        0.9955096244812012,
        1
      ],
      "type": "VEC3",
      "bufferView": 1,
      "byteOffset": 0
    },
    {
      "name": "Cylinder_Gris_0_texcoords",
      "componentType": 5126,
      "count": 480,
      "min": [
        0.00020399999630171806,
        0.10010500252246857
      ],
      "max": [
        0.6079509854316711,
        0.9997959733009338
      ],
      "type": "VEC2",
      "bufferView": 2,
      "byteOffset": 0
    },
    {
      "name": "Cylinder_Gris_0_indices",
      "componentType": 5123,
      "count": 2304,
      "min": [
        0
      ],
      "max": [
        479
      ],
      "type": "SCALAR",
      "bufferView": 3,
      "byteOffset": 0
    },
    {
      "name": "Cylinder_Rose_0_positions",
      "componentType": 5126,
      "count": 256,
      "min": [
        -1.519124984741211,
        -0.4234350025653839,
        -1.519124984741211
      ],
      "max": [
        1.519124984741211,
        0.4234350025653839,
        1.519124984741211
      ],
      "type": "VEC3",
      "bufferView": 0,
      "byteOffset": 5760
    },
    {
      "name": "Cylinder_Rose_0_normals",
      "componentType": 5126,
      "count": 256,
      "min": [
        -0.9117211699485779,
        -0.9955096244812012,
        -0.9117211699485779
      ],
      "max": [
        0.9117211699485779,
        0.9955096244812012,
        0.9117211699485779
      ],
      "type": "VEC3",
      "bufferView": 1,
      "byteOffset": 5760
    },
    {
      "name": "Cylinder_Rose_0_texcoords",
      "componentType": 5126,
      "count": 256,
      "min": [
        0.2878350019454956,
        0.14656700193881989
      ],
      "max": [
        0.9997959733009338,
        0.9997959733009338
      ],
      "type": "VEC2",
      "bufferView": 2,
      "byteOffset": 3840
    },
    {
      "name": "Cylinder_Rose_0_indices",
      "componentType": 5123,
      "count": 768,
      "min": [
        0
      ],
      "max": [
        255
      ],
      "type": "SCALAR",
      "bufferView": 3,
      "byteOffset": 4608
    },
    {
      "name": "Cylinder_Or_0_positions",
      "componentType": 5126,
      "count": 1088,
      "min": [
        -1.4480140209197998,
        -0.31539198756217957,
        -1.4480140209197998
      ],
      "max": [
        1.4480140209197998,
        0.31539198756217957,
        1.4480140209197998
      ],
      "type": "VEC3",
      "bufferView": 0,
      "byteOffset": 8832
    },
    {
      "name": "Cylinder_Or_0_normals",
      "componentType": 5126,
      "count": 1088,
      "min": [
        -0.5740017890930176,
        -1,
        -0.5740017890930176
      ],
      "max": [
        0.5740017890930176,
        1,
        0.5740017890930176
      ],
      "type": "VEC3",
      "bufferView": 1,
      "byteOffset": 8832
    },
    {
      "name": "Cylinder_Or_0_texcoords",
      "componentType": 5126,
      "count": 1088,
      "min": [
        0.6083580255508423,
        0.09434600174427032
      ],
      "max": [
        0.9094210267066956,
        0.6071699857711792
      ],
      "type": "VEC2",
      "bufferView": 2,
      "byteOffset": 5888
    },
    {
      "name": "Cylinder_Or_0_indices",
      "componentType": 5123,
      "count": 2100,
      "min": [
        0
      ],
      "max": [
        1087
      ],
      "type": "SCALAR",
      "bufferView": 3,
      "byteOffset": 6144
    }
  ],
  "asset": {
    "generator": "obj2gltf",
    "version": "2.0"
  },
  "buffers": [
    {
      "name": "Vaisseau",
      "byteLength": 68712,
      "uri": "data:application/octet-stream;base64,"
    }
  ],
  "bufferViews": [
    {
      "name": "bufferView_0",
      "buffer": 0,
      "byteLength": 21888,
      "byteOffset": 0,
      "byteStride": 12,
      "target": 34962
    },
    {
      "name": "bufferView_1",
      "buffer": 0,
      "byteLength": 21888,
      "byteOffset": 21888,
      "byteStride": 12,
      "target": 34962
    },
    {
      "name": "bufferView_2",
      "buffer": 0,
      "byteLength": 14592,
      "byteOffset": 43776,
      "byteStride": 8,
      "target": 34962
    },
    {
      "name": "bufferView_3",
      "buffer": 0,
      "byteLength": 10344,
      "byteOffset": 58368,
      "target": 34963
    }
  ],
  "materials": [
    {
      "name": "Gris",
      "pbrMetallicRoughness": {
        "baseColorFactor": [
          0.1802,
          0.1802,
          0.1802,
          1
        ],
        "metallicFactor": 0,
        "roughnessFactor": 0.75
      },
      "emissiveFactor": [
        0,
        0,
        0
      ],
      "alphaMode": "OPAQUE",
      "doubleSided": false
    },
    {
      "name": "Rose",
      "pbrMetallicRoughness": {
        "baseColorFactor": [
          0.651118,
          0.009733,
          0.800521,
          1
        ],
        "metallicFactor": 0,
        "roughnessFactor": 0.75
      },
      "emissiveFactor": [
        3.284693,
        0.050056,
        4.8
      ],
      "alphaMode": "OPAQUE",
      "doubleSided": false
    },
    {
      "name": "Or",
      "pbrMetallicRoughness": {
        "baseColorFactor": [
          0.338721,
          0.145646,
          0.036881,
          1
        ],
        "metallicFactor": 0,
        "roughnessFactor": 0.75
      },
      "emissiveFactor": [
        0,
        0,
        0
      ],
      "alphaMode": "OPAQUE",
      "doubleSided": false
    }
  ],
  "meshes": [
    {
      "name": "Cylinder_Gris",
      "primitives": [
        {
          "attributes": {
            "POSITION": 0,
            "NORMAL": 1,
            "TEXCOORD_0": 2
          },
          "indices": 3,
          "material": 0,
          "mode": 4
        }
      ]
    },
    {
      "name": "Cylinder_Rose",
      "primitives": [
        {
          "attributes": {
            "POSITION": 4,
            "NORMAL": 5,
            "TEXCOORD_0": 6
          },
          "indices": 7,
          "material": 1,
          "mode": 4
        }
      ]
    },
    {
      "name": "Cylinder_Or",
      "primitives": [
        {
          "attributes": {
            "POSITION": 8,
            "NORMAL": 9,
            "TEXCOORD_0": 10
          },
          "indices": 11,
          "material": 2,
          "mode": 4
        }
      ]
    }
  ],
  "nodes": [
    {
      "name": "Cylinder",
      "children": [
        1,
        2,
        3
      ]
    },
    {
      "name": "Cylinder_Gris",
      "mesh": 0
    },
    {
      "name": "Cylinder_Rose",
      "mesh": 1
    },
    {
      "name": "Cylinder_Or",
      "mesh": 2
    }
  ],
  "scene": 0,
  "scenes": [
    {
      "nodes": [
        0
      ]
    }
  ]
}
